<?xml version="1.0" encoding="UTF-8"?>
<!DOCTYPE svg PUBLIC "-//W3C//DTD SVG 1.1//EN" "http://www.w3.org/Graphics/SVG/1.1/DTD/svg11.dtd">
<svg xmlns="http://www.w3.org/2000/svg" version="1.1" width="500px" height="500px" style="shape-rendering:geometricPrecision; text-rendering:geometricPrecision; image-rendering:optimizeQuality; fill-rule:evenodd; clip-rule:evenodd" xmlns:xlink="http://www.w3.org/1999/xlink">
<g><path style="opacity:1" fill="#fc3a33" d="M 250.5,163.5 C 253.273,172.654 256.939,181.321 261.5,189.5C 261.5,190.167 261.5,190.833 261.5,191.5C 261.325,193.621 261.659,195.621 262.5,197.5C 262.631,198.239 262.464,198.906 262,199.5C 260.173,198.341 258.507,197.008 257,195.5C 255.956,196.623 255.29,197.956 255,199.5C 253.493,197.992 251.827,196.659 250,195.5C 249.316,194.216 249.483,193.049 250.5,192C 249.251,191.26 248.251,191.427 247.5,192.5C 245.623,191.341 245.123,189.674 246,187.5C 246.333,187.833 246.667,188.167 247,188.5C 248.954,186.439 250.788,184.272 252.5,182C 251.922,180.189 251.422,178.355 251,176.5C 249.676,178.5 248.009,180.167 246,181.5C 245.5,180 245,178.5 244.5,177C 245.692,175.416 246.525,173.583 247,171.5C 248.566,170.939 249.899,171.606 251,173.5C 251.667,172.5 251.667,171.5 251,170.5C 249.13,168.595 247.63,166.428 246.5,164C 247.744,163.544 248.577,164.044 249,165.5C 249.278,164.584 249.778,163.918 250.5,163.5 Z"/></g>
<g><path style="opacity:1" fill="#a7254a" d="M 244.5,162.5 C 245.097,162.735 245.43,163.235 245.5,164C 244.047,168.367 242.214,172.534 240,176.5C 239.054,181.163 238.221,185.83 237.5,190.5C 236.833,190.833 236.167,191.167 235.5,191.5C 236.051,188.193 236.384,184.86 236.5,181.5C 233.708,181.452 231.875,182.785 231,185.5C 231.524,182.782 232.357,180.115 233.5,177.5C 236.812,172.196 240.479,167.196 244.5,162.5 Z"/></g>
<g><path style="opacity:1" fill="#fa3e3e" d="M 250.5,163.5 C 249.778,163.918 249.278,164.584 249,165.5C 248.577,164.044 247.744,163.544 246.5,164C 247.63,166.428 249.13,168.595 251,170.5C 251.667,171.5 251.667,172.5 251,173.5C 249.899,171.606 248.566,170.939 247,171.5C 246.525,173.583 245.692,175.416 244.5,177C 245,178.5 245.5,180 246,181.5C 248.009,180.167 249.676,178.5 251,176.5C 251.422,178.355 251.922,180.189 252.5,182C 250.788,184.272 248.954,186.439 247,188.5C 246.667,188.167 246.333,187.833 246,187.5C 245.123,189.674 245.623,191.341 247.5,192.5C 247.715,194.179 247.048,195.179 245.5,195.5C 245.423,194.25 244.756,193.417 243.5,193C 244.706,191.982 244.373,191.482 242.5,191.5C 239.734,193.078 237.401,195.078 235.5,197.5C 236.167,195.167 236.833,192.833 237.5,190.5C 238.221,185.83 239.054,181.163 240,176.5C 242.214,172.534 244.047,168.367 245.5,164C 245.43,163.235 245.097,162.735 244.5,162.5C 246.695,157.56 248.695,157.893 250.5,163.5 Z"/></g>
<g><path style="opacity:1" fill="#fa7142" d="M 250.5,163.5 C 258.238,172.244 265.238,181.577 271.5,191.5C 270.883,191.611 270.383,191.944 270,192.5C 267.587,189.858 264.754,188.858 261.5,189.5C 256.939,181.321 253.273,172.654 250.5,163.5 Z"/></g>
<g><path style="opacity:1" fill="#f93539" d="M 245.5,195.5 C 245.756,197.792 245.423,199.959 244.5,202C 245.416,202.374 246.25,202.874 247,203.5C 247.273,205.329 248.107,206.829 249.5,208C 249.272,208.399 248.938,208.565 248.5,208.5C 247.833,208.833 247.167,209.167 246.5,209.5C 246.441,207.278 245.275,206.278 243,206.5C 241.113,206.969 239.613,207.969 238.5,209.5C 237.534,207.604 237.201,205.604 237.5,203.5C 236.5,203.5 235.5,203.5 234.5,203.5C 234.325,201.379 234.659,199.379 235.5,197.5C 237.401,195.078 239.734,193.078 242.5,191.5C 244.373,191.482 244.706,191.982 243.5,193C 244.756,193.417 245.423,194.25 245.5,195.5 Z"/></g>
<g><path style="opacity:1" fill="#a22350" d="M 233.5,177.5 C 232.357,180.115 231.524,182.782 231,185.5C 231.875,182.785 233.708,181.452 236.5,181.5C 236.384,184.86 236.051,188.193 235.5,191.5C 234.014,197.119 232.014,202.453 229.5,207.5C 227.813,209.166 225.813,210.5 223.5,211.5C 223.721,210.265 224.388,209.265 225.5,208.5C 225.141,205.274 224.974,201.607 225,197.5C 223.784,199.962 223.118,202.629 223,205.5C 222.25,204.874 221.416,204.374 220.5,204C 221.711,203.107 221.711,202.274 220.5,201.5C 219.667,202.5 218.833,203.5 218,204.5C 217.014,203.829 215.847,203.829 214.5,204.5C 220.6,195.287 226.933,186.287 233.5,177.5 Z"/></g>
<g><path style="opacity:1" fill="#fe3b36" d="M 262.5,197.5 C 264.391,200.957 266.058,204.624 267.5,208.5C 265.419,210.847 263.419,213.18 261.5,215.5C 257.65,215.447 254.817,213.78 253,210.5C 252.667,211.167 252.333,211.833 252,212.5C 249.929,211.897 248.762,210.564 248.5,208.5C 248.938,208.565 249.272,208.399 249.5,208C 248.107,206.829 247.273,205.329 247,203.5C 246.25,202.874 245.416,202.374 244.5,202C 245.423,199.959 245.756,197.792 245.5,195.5C 247.048,195.179 247.715,194.179 247.5,192.5C 248.251,191.427 249.251,191.26 250.5,192C 249.483,193.049 249.316,194.216 250,195.5C 251.827,196.659 253.493,197.992 255,199.5C 255.29,197.956 255.956,196.623 257,195.5C 258.507,197.008 260.173,198.341 262,199.5C 262.464,198.906 262.631,198.239 262.5,197.5 Z"/></g>
<g><path style="opacity:1" fill="#fd7038" d="M 271.5,191.5 C 277.32,198.471 282.653,205.804 287.5,213.5C 284.622,212.966 281.788,213.632 279,215.5C 275.864,213.571 275.697,211.237 278.5,208.5C 279.427,210.113 280.261,211.779 281,213.5C 281.638,212.391 282.138,211.225 282.5,210C 280.327,207.815 278.493,205.315 277,202.5C 274.612,204.666 273.112,207.332 272.5,210.5C 274.271,213.256 275.271,216.256 275.5,219.5C 274.833,218.833 274.167,218.167 273.5,217.5C 271.555,210.944 269.055,204.61 266,198.5C 264.581,196.007 263.081,193.674 261.5,191.5C 261.5,190.833 261.5,190.167 261.5,189.5C 264.754,188.858 267.587,189.858 270,192.5C 270.383,191.944 270.883,191.611 271.5,191.5 Z"/></g>
<g><path style="opacity:1" fill="#e13d48" d="M 237.5,190.5 C 236.833,192.833 236.167,195.167 235.5,197.5C 234.659,199.379 234.325,201.379 234.5,203.5C 235.5,203.5 236.5,203.5 237.5,203.5C 237.201,205.604 237.534,207.604 238.5,209.5C 239.613,207.969 241.113,206.969 243,206.5C 245.275,206.278 246.441,207.278 246.5,209.5C 245.542,209.047 244.708,208.381 244,207.5C 240.039,210.887 235.873,213.887 231.5,216.5C 230.178,216.33 229.011,216.663 228,217.5C 227.833,217 227.667,216.5 227.5,216C 229.177,213.453 229.844,210.62 229.5,207.5C 232.014,202.453 234.014,197.119 235.5,191.5C 236.167,191.167 236.833,190.833 237.5,190.5 Z"/></g>
<g><path style="opacity:1" fill="#9a1b51" d="M 217.5,218.5 C 217.771,220.38 217.104,221.713 215.5,222.5C 212.601,223.535 210.101,225.202 208,227.5C 207.601,227.272 207.435,226.938 207.5,226.5C 208.953,225.175 208.619,224.342 206.5,224C 207.8,222.421 207.466,221.255 205.5,220.5C 206.339,217.159 208.172,214.492 211,212.5C 211.667,213.167 212.333,213.833 213,214.5C 213.318,212.939 214.151,211.772 215.5,211C 212.523,208.881 212.856,207.714 216.5,207.5C 217.5,207.833 218.5,208.167 219.5,208.5C 216.65,210.237 216.316,212.071 218.5,214C 215.833,214.667 215.833,215.333 218.5,216C 217.748,216.671 217.414,217.504 217.5,218.5 Z"/></g>
<g><path style="opacity:1" fill="#992b52" d="M 223.5,211.5 C 222.208,214.401 220.208,216.734 217.5,218.5C 217.414,217.504 217.748,216.671 218.5,216C 215.833,215.333 215.833,214.667 218.5,214C 216.316,212.071 216.65,210.237 219.5,208.5C 218.5,208.167 217.5,207.833 216.5,207.5C 212.856,207.714 212.523,208.881 215.5,211C 214.151,211.772 213.318,212.939 213,214.5C 212.333,213.833 211.667,213.167 211,212.5C 208.172,214.492 206.339,217.159 205.5,220.5C 202.145,224.187 198.811,227.853 195.5,231.5C 201.477,222.2 207.81,213.2 214.5,204.5C 215.847,203.829 217.014,203.829 218,204.5C 218.833,203.5 219.667,202.5 220.5,201.5C 221.711,202.274 221.711,203.107 220.5,204C 221.416,204.374 222.25,204.874 223,205.5C 223.118,202.629 223.784,199.962 225,197.5C 224.974,201.607 225.141,205.274 225.5,208.5C 224.388,209.265 223.721,210.265 223.5,211.5 Z"/></g>
<g><path style="opacity:1" fill="#fc7129" d="M 287.5,213.5 C 287.751,215.17 288.418,216.67 289.5,218C 287.978,219.328 286.311,219.162 284.5,217.5C 284.167,217.833 283.833,218.167 283.5,218.5C 285.224,219.033 286.891,220.199 288.5,222C 287.248,223.828 287.248,225.661 288.5,227.5C 287.691,229.292 287.191,231.292 287,233.5C 283.191,229.233 279.858,224.566 277,219.5C 276.617,220.056 276.117,220.389 275.5,220.5C 275.5,220.167 275.5,219.833 275.5,219.5C 275.271,216.256 274.271,213.256 272.5,210.5C 273.112,207.332 274.612,204.666 277,202.5C 278.493,205.315 280.327,207.815 282.5,210C 282.138,211.225 281.638,212.391 281,213.5C 280.261,211.779 279.427,210.113 278.5,208.5C 275.697,211.237 275.864,213.571 279,215.5C 281.788,213.632 284.622,212.966 287.5,213.5 Z"/></g>
<g><path style="opacity:1" fill="#fc4132" d="M 261.5,191.5 C 263.081,193.674 264.581,196.007 266,198.5C 269.055,204.61 271.555,210.944 273.5,217.5C 273.833,219.5 274.167,221.5 274.5,223.5C 272.821,223.285 271.821,223.952 271.5,225.5C 268.816,224.496 267.316,222.496 267,219.5C 265.008,218.335 263.175,217.002 261.5,215.5C 263.419,213.18 265.419,210.847 267.5,208.5C 266.058,204.624 264.391,200.957 262.5,197.5C 261.659,195.621 261.325,193.621 261.5,191.5 Z"/></g>
<g><path style="opacity:1" fill="#b92f52" d="M 229.5,207.5 C 229.844,210.62 229.177,213.453 227.5,216C 227.667,216.5 227.833,217 228,217.5C 229.011,216.663 230.178,216.33 231.5,216.5C 226.573,221.302 221.24,225.635 215.5,229.5C 213.923,227.198 214.589,225.698 217.5,225C 216.244,224.583 215.577,223.75 215.5,222.5C 217.104,221.713 217.771,220.38 217.5,218.5C 220.208,216.734 222.208,214.401 223.5,211.5C 225.813,210.5 227.813,209.166 229.5,207.5 Z"/></g>
<g><path style="opacity:1" fill="#e14647" d="M 264.5,234.5 C 259.399,229.064 255.066,223.064 251.5,216.5C 253.455,215.677 255.455,215.51 257.5,216C 259.452,218.074 261.285,220.241 263,222.5C 263.079,226.421 263.579,230.421 264.5,234.5 Z"/></g>
<g><path style="opacity:1" fill="#91174e" d="M 205.5,220.5 C 207.466,221.255 207.8,222.421 206.5,224C 208.619,224.342 208.953,225.175 207.5,226.5C 205.892,225.462 204.892,226.129 204.5,228.5C 204.931,229.293 205.265,230.127 205.5,231C 203.809,233.571 202.809,236.404 202.5,239.5C 200.5,239.167 198.5,238.833 196.5,238.5C 196.64,236.876 195.973,235.71 194.5,235C 195.337,233.989 195.67,232.822 195.5,231.5C 198.811,227.853 202.145,224.187 205.5,220.5 Z"/></g>
<g><path style="opacity:1" fill="#a22a54" d="M 215.5,222.5 C 215.577,223.75 216.244,224.583 217.5,225C 214.589,225.698 213.923,227.198 215.5,229.5C 211.191,232.802 206.857,236.136 202.5,239.5C 202.809,236.404 203.809,233.571 205.5,231C 205.265,230.127 204.931,229.293 204.5,228.5C 204.892,226.129 205.892,225.462 207.5,226.5C 207.435,226.938 207.601,227.272 208,227.5C 210.101,225.202 212.601,223.535 215.5,222.5 Z"/></g>
<g><path style="opacity:1" fill="#e83b38" d="M 248.5,208.5 C 248.762,210.564 249.929,211.897 252,212.5C 252.333,211.833 252.667,211.167 253,210.5C 254.817,213.78 257.65,215.447 261.5,215.5C 263.175,217.002 265.008,218.335 267,219.5C 267.316,222.496 268.816,224.496 271.5,225.5C 272.347,226.966 273.68,227.8 275.5,228C 276.823,228.816 277.489,229.983 277.5,231.5C 275.357,229.926 273.024,228.592 270.5,227.5C 269.87,230.741 268.87,233.075 267.5,234.5C 266.5,234.5 265.5,234.5 264.5,234.5C 263.579,230.421 263.079,226.421 263,222.5C 261.285,220.241 259.452,218.074 257.5,216C 255.455,215.51 253.455,215.677 251.5,216.5C 249.1,214.704 247.433,212.37 246.5,209.5C 247.167,209.167 247.833,208.833 248.5,208.5 Z"/></g>
<g><path style="opacity:1" fill="#fd7231" d="M 288.5,227.5 C 289.646,229.475 291.313,230.975 293.5,232C 292.584,232.278 291.918,232.778 291.5,233.5C 290.665,234.036 290.665,234.869 291.5,236C 293.408,239.944 295.741,242.777 298.5,244.5C 292.908,241.114 287.408,237.447 282,233.5C 279.838,229.176 277.672,224.843 275.5,220.5C 276.117,220.389 276.617,220.056 277,219.5C 279.858,224.566 283.191,229.233 287,233.5C 287.191,231.292 287.691,229.292 288.5,227.5 Z"/></g>
<g><path style="opacity:1" fill="#e53e3e" d="M 277.5,231.5 C 278.833,232.167 279.833,233.167 280.5,234.5C 279.653,235.966 278.32,236.8 276.5,237C 274.563,239.086 272.896,241.252 271.5,243.5C 268.815,240.81 266.482,237.81 264.5,234.5C 265.5,234.5 266.5,234.5 267.5,234.5C 268.87,233.075 269.87,230.741 270.5,227.5C 273.024,228.592 275.357,229.926 277.5,231.5 Z"/></g>
<g><path style="opacity:1" fill="#fc7b32" d="M 287.5,213.5 C 292.518,219.19 297.185,225.19 301.5,231.5C 301.249,233.17 300.582,234.67 299.5,236C 300.449,236.617 301.282,236.451 302,235.5C 302.692,236.025 303.192,236.692 303.5,237.5C 302.174,237.205 300.841,237.705 299.5,239C 300.76,240.113 301.927,240.28 303,239.5C 305,240.5 305,241.5 303,242.5C 298.404,240.396 294.571,237.396 291.5,233.5C 291.918,232.778 292.584,232.278 293.5,232C 291.313,230.975 289.646,229.475 288.5,227.5C 287.248,225.661 287.248,223.828 288.5,222C 286.891,220.199 285.224,219.033 283.5,218.5C 283.833,218.167 284.167,217.833 284.5,217.5C 286.311,219.162 287.978,219.328 289.5,218C 288.418,216.67 287.751,215.17 287.5,213.5 Z"/></g>
<g><path style="opacity:1" fill="#94395e" d="M 195.5,231.5 C 195.67,232.822 195.337,233.989 194.5,235C 195.973,235.71 196.64,236.876 196.5,238.5C 198.5,238.833 200.5,239.167 202.5,239.5C 193.312,246.694 184.145,254.027 175,261.5C 181.048,251.105 187.882,241.105 195.5,231.5 Z"/></g>
<g><path style="opacity:1" fill="#fa4634" d="M 280.5,234.5 C 282.34,236.168 284.34,237.668 286.5,239C 286.043,239.414 285.709,239.914 285.5,240.5C 289.341,242.355 293.008,244.355 296.5,246.5C 294.841,247.834 293.508,249.501 292.5,251.5C 290.213,252.215 288.046,252.549 286,252.5C 285.805,250.793 285.805,249.126 286,247.5C 284.887,246.289 283.72,246.289 282.5,247.5C 280.499,241.42 276.832,240.086 271.5,243.5C 272.896,241.252 274.563,239.086 276.5,237C 278.32,236.8 279.653,235.966 280.5,234.5 Z"/></g>
<g><path style="opacity:1" fill="#fa813c" d="M 301.5,231.5 C 304.803,235.651 307.97,239.985 311,244.5C 311.816,245.823 312.983,246.489 314.5,246.5C 314.5,246.833 314.5,247.167 314.5,247.5C 310.664,249.584 306.997,251.917 303.5,254.5C 304.473,252.932 304.64,251.265 304,249.5C 302.229,247.709 300.396,246.043 298.5,244.5C 295.741,242.777 293.408,239.944 291.5,236C 290.665,234.869 290.665,234.036 291.5,233.5C 294.571,237.396 298.404,240.396 303,242.5C 305,241.5 305,240.5 303,239.5C 301.927,240.28 300.76,240.113 299.5,239C 300.841,237.705 302.174,237.205 303.5,237.5C 303.192,236.692 302.692,236.025 302,235.5C 301.282,236.451 300.449,236.617 299.5,236C 300.582,234.67 301.249,233.17 301.5,231.5 Z"/></g>
<g><path style="opacity:1" fill="#d22659" d="M 246.5,234.5 C 246.797,238.767 246.464,242.934 245.5,247C 246.448,247.483 247.448,247.649 248.5,247.5C 248.109,251.383 248.776,255.05 250.5,258.5C 250.167,260.167 249.167,261.167 247.5,261.5C 245.87,260.579 244.203,259.745 242.5,259C 243.833,258 245.167,257 246.5,256C 245.853,254.391 245.02,252.891 244,251.5C 243.763,256.48 241.763,257.814 238,255.5C 237.5,255.833 237,256.167 236.5,256.5C 237.348,258.409 237.682,260.409 237.5,262.5C 236.167,261.5 234.833,260.5 233.5,259.5C 236.857,252.625 240.023,245.625 243,238.5C 244.405,237.269 245.571,235.936 246.5,234.5 Z"/></g>
<g><path style="opacity:1" fill="#fc4f3f" d="M 250.5,236.5 C 253.117,237.786 255.45,239.453 257.5,241.5C 256.195,244.871 257.529,246.204 261.5,245.5C 261.33,246.822 261.663,247.989 262.5,249C 260.649,250.684 258.982,252.517 257.5,254.5C 261.351,255.345 263.351,257.678 263.5,261.5C 261.517,261.157 260.183,261.824 259.5,263.5C 259.167,263.5 258.833,263.5 258.5,263.5C 257.391,263.557 256.391,263.89 255.5,264.5C 254.504,264.586 253.671,264.252 253,263.5C 250.55,254.586 248.883,245.586 248,236.5C 248.77,237.598 249.603,237.598 250.5,236.5 Z"/></g>
<g><path style="opacity:1" fill="#f4543f" d="M 296.5,246.5 C 297.75,246.577 298.583,247.244 299,248.5C 300.11,250.397 300.276,252.23 299.5,254C 300.793,254.49 302.127,254.657 303.5,254.5C 300.208,257.49 296.874,260.49 293.5,263.5C 286.466,256.464 279.133,249.797 271.5,243.5C 276.832,240.086 280.499,241.42 282.5,247.5C 283.72,246.289 284.887,246.289 286,247.5C 285.805,249.126 285.805,250.793 286,252.5C 288.046,252.549 290.213,252.215 292.5,251.5C 293.508,249.501 294.841,247.834 296.5,246.5 Z"/></g>
<g><path style="opacity:1" fill="#305f9a" d="M 323.5,241.5 C 324.117,241.611 324.617,241.944 325,242.5C 325.709,247.007 326.876,251.341 328.5,255.5C 327.849,254.909 327.182,254.243 326.5,253.5C 326.167,255.167 325.833,256.833 325.5,258.5C 325.481,261.883 326.147,265.05 327.5,268C 327.45,270.869 326.117,272.703 323.5,273.5C 322.508,273.672 321.842,273.338 321.5,272.5C 322.209,271.596 323.209,271.263 324.5,271.5C 324.66,269.801 324.494,268.134 324,266.5C 323.444,268.595 322.944,268.762 322.5,267C 322.645,266.228 322.978,265.561 323.5,265C 321.943,261.022 321.11,256.855 321,252.5C 320.084,256.574 318.918,260.574 317.5,264.5C 317.653,261.643 317.319,258.976 316.5,256.5C 317.207,254.082 318.207,251.748 319.5,249.5C 319.457,248.584 319.124,247.917 318.5,247.5C 319.701,245.091 321.367,243.091 323.5,241.5 Z"/></g>
<g><path style="opacity:1" fill="#f64b2d" d="M 273.5,217.5 C 274.167,218.167 274.833,218.833 275.5,219.5C 275.5,219.833 275.5,220.167 275.5,220.5C 277.672,224.843 279.838,229.176 282,233.5C 287.408,237.447 292.908,241.114 298.5,244.5C 300.396,246.043 302.229,247.709 304,249.5C 304.64,251.265 304.473,252.932 303.5,254.5C 302.127,254.657 300.793,254.49 299.5,254C 300.276,252.23 300.11,250.397 299,248.5C 298.583,247.244 297.75,246.577 296.5,246.5C 293.008,244.355 289.341,242.355 285.5,240.5C 285.709,239.914 286.043,239.414 286.5,239C 284.34,237.668 282.34,236.168 280.5,234.5C 279.833,233.167 278.833,232.167 277.5,231.5C 277.489,229.983 276.823,228.816 275.5,228C 273.68,227.8 272.347,226.966 271.5,225.5C 271.821,223.952 272.821,223.285 274.5,223.5C 274.167,221.5 273.833,219.5 273.5,217.5 Z"/></g>
<g><path style="opacity:1" fill="#f95a3d" d="M 257.5,241.5 C 261.896,244.025 265.896,247.025 269.5,250.5C 269.351,251.552 269.517,252.552 270,253.5C 272.124,254.622 273.957,256.122 275.5,258C 273.775,257.591 272.108,257.758 270.5,258.5C 271.833,260.167 271.833,261.833 270.5,263.5C 267.572,264.484 264.572,264.817 261.5,264.5C 261.158,263.662 260.492,263.328 259.5,263.5C 260.183,261.824 261.517,261.157 263.5,261.5C 263.351,257.678 261.351,255.345 257.5,254.5C 258.982,252.517 260.649,250.684 262.5,249C 261.663,247.989 261.33,246.822 261.5,245.5C 257.529,246.204 256.195,244.871 257.5,241.5 Z"/></g>
<g><path style="opacity:1" fill="#7dbbb1" d="M 327.5,239.5 C 336.593,247.382 345.259,255.715 353.5,264.5C 346.807,267.847 340.14,271.18 333.5,274.5C 331.982,262.758 329.982,251.091 327.5,239.5 Z"/></g>
<g><path style="opacity:1" fill="#d1284b" d="M 246.5,233.5 C 248.404,233.738 249.738,234.738 250.5,236.5C 249.603,237.598 248.77,237.598 248,236.5C 248.883,245.586 250.55,254.586 253,263.5C 253.671,264.252 254.504,264.586 255.5,264.5C 254.329,265.345 252.995,266.011 251.5,266.5C 249.5,266.5 247.5,266.5 245.5,266.5C 245.057,263.376 243.39,261.043 240.5,259.5C 239.859,260.993 238.859,261.993 237.5,262.5C 237.682,260.409 237.348,258.409 236.5,256.5C 237,256.167 237.5,255.833 238,255.5C 241.763,257.814 243.763,256.48 244,251.5C 245.02,252.891 245.853,254.391 246.5,256C 245.167,257 243.833,258 242.5,259C 244.203,259.745 245.87,260.579 247.5,261.5C 249.167,261.167 250.167,260.167 250.5,258.5C 248.776,255.05 248.109,251.383 248.5,247.5C 247.448,247.649 246.448,247.483 245.5,247C 246.464,242.934 246.797,238.767 246.5,234.5C 246.5,234.167 246.5,233.833 246.5,233.5 Z"/></g>
<g><path style="opacity:1" fill="#f06c4c" d="M 269.5,250.5 C 276.778,255.112 283.778,260.112 290.5,265.5C 290.167,266.5 289.5,267.167 288.5,267.5C 285.536,265.553 282.536,263.553 279.5,261.5C 277.62,261.229 276.287,261.896 275.5,263.5C 272.451,264.306 269.451,265.306 266.5,266.5C 264.447,266.598 262.78,265.931 261.5,264.5C 264.572,264.817 267.572,264.484 270.5,263.5C 271.833,261.833 271.833,260.167 270.5,258.5C 272.108,257.758 273.775,257.591 275.5,258C 273.957,256.122 272.124,254.622 270,253.5C 269.517,252.552 269.351,251.552 269.5,250.5 Z"/></g>
<g><path style="opacity:1" fill="#417793" d="M 327.5,239.5 C 329.982,251.091 331.982,262.758 333.5,274.5C 333.158,275.338 332.492,275.672 331.5,275.5C 332.043,274.258 332.377,272.925 332.5,271.5C 331.136,266.044 329.803,260.711 328.5,255.5C 326.876,251.341 325.709,247.007 325,242.5C 324.617,241.944 324.117,241.611 323.5,241.5C 323.5,240.833 323.167,240.5 322.5,240.5C 323.799,237.128 325.466,236.795 327.5,239.5 Z"/></g>
<g><path style="opacity:1" fill="#612356" d="M 246.5,233.5 C 246.5,233.833 246.5,234.167 246.5,234.5C 245.571,235.936 244.405,237.269 243,238.5C 240.023,245.625 236.857,252.625 233.5,259.5C 233.5,259.833 233.5,260.167 233.5,260.5C 230.653,264.364 227.986,268.364 225.5,272.5C 225.664,269.813 225.497,267.146 225,264.5C 221.057,268.857 216.89,273.023 212.5,277C 213.337,278.011 213.67,279.178 213.5,280.5C 211.007,280.131 210.34,280.797 211.5,282.5C 210.833,282.5 210.5,282.833 210.5,283.5C 209.105,282.185 208.105,282.519 207.5,284.5C 206.833,284.5 206.167,284.5 205.5,284.5C 218.601,266.388 232.268,249.388 246.5,233.5 Z"/></g>
<g><path style="opacity:1" fill="#1a2a60" d="M 314.5,247.5 C 312.873,249.63 311.04,251.63 309,253.5C 309.046,255.313 308.88,256.979 308.5,258.5C 306.214,257.58 303.881,257.58 301.5,258.5C 301.5,259.833 301.5,261.167 301.5,262.5C 300.5,262.5 299.5,262.5 298.5,262.5C 298.371,264.216 298.038,265.883 297.5,267.5C 296.5,267.5 295.5,267.5 294.5,267.5C 294.2,270.518 292.533,272.518 289.5,273.5C 288.833,273.167 288.167,272.833 287.5,272.5C 288.376,271.749 289.376,271.249 290.5,271C 288.863,269.049 287.363,269.216 286,271.5C 285.707,273.925 284.541,275.758 282.5,277C 283.167,277.333 283.833,277.667 284.5,278C 284.116,278.951 283.783,279.784 283.5,280.5C 281.483,279.471 279.483,278.471 277.5,277.5C 278.5,276.167 279.5,274.833 280.5,273.5C 283.455,271.878 286.122,269.878 288.5,267.5C 289.5,267.167 290.167,266.5 290.5,265.5C 291.5,264.833 292.5,264.167 293.5,263.5C 296.874,260.49 300.208,257.49 303.5,254.5C 306.997,251.917 310.664,249.584 314.5,247.5 Z"/></g>
<g><path style="opacity:1" fill="#244c94" d="M 318.5,247.5 C 319.124,247.917 319.457,248.584 319.5,249.5C 318.207,251.748 317.207,254.082 316.5,256.5C 314.489,258.667 313.322,261.334 313,264.5C 311.5,266.667 309.667,268.5 307.5,270C 308.536,271.776 308.536,273.609 307.5,275.5C 306.41,276.857 305.076,277.857 303.5,278.5C 301.958,279.301 300.292,279.634 298.5,279.5C 297.355,278.207 297.689,277.041 299.5,276C 300.793,275.51 302.127,275.343 303.5,275.5C 303.5,272.833 303.5,270.167 303.5,267.5C 305.017,267.489 306.184,266.823 307,265.5C 310.367,259.014 314.2,253.014 318.5,247.5 Z"/></g>
<g><path style="opacity:1" fill="#375c99" d="M 328.5,255.5 C 329.803,260.711 331.136,266.044 332.5,271.5C 332.377,272.925 332.043,274.258 331.5,275.5C 331.5,276.167 331.5,276.833 331.5,277.5C 330.167,277.5 328.833,277.5 327.5,277.5C 326.375,276 325.041,274.667 323.5,273.5C 326.117,272.703 327.45,270.869 327.5,268C 326.147,265.05 325.481,261.883 325.5,258.5C 325.833,256.833 326.167,255.167 326.5,253.5C 327.182,254.243 327.849,254.909 328.5,255.5 Z"/></g>
<g><path style="opacity:1" fill="#2f5d9d" d="M 321.5,272.5 C 320.833,272.5 320.167,272.5 319.5,272.5C 318.791,271.596 317.791,271.263 316.5,271.5C 313.289,272.455 310.289,273.789 307.5,275.5C 308.536,273.609 308.536,271.776 307.5,270C 309.667,268.5 311.5,266.667 313,264.5C 313.322,261.334 314.489,258.667 316.5,256.5C 317.319,258.976 317.653,261.643 317.5,264.5C 318.918,260.574 320.084,256.574 321,252.5C 321.11,256.855 321.943,261.022 323.5,265C 322.978,265.561 322.645,266.228 322.5,267C 322.944,268.762 323.444,268.595 324,266.5C 324.494,268.134 324.66,269.801 324.5,271.5C 323.209,271.263 322.209,271.596 321.5,272.5 Z"/></g>
<g><path style="opacity:1" fill="#1e3c80" d="M 322.5,240.5 C 323.167,240.5 323.5,240.833 323.5,241.5C 321.367,243.091 319.701,245.091 318.5,247.5C 314.2,253.014 310.367,259.014 307,265.5C 306.184,266.823 305.017,267.489 303.5,267.5C 301.911,266.379 300.244,266.546 298.5,268C 302.655,270.273 302.322,271.439 297.5,271.5C 297.5,270.167 297.5,268.833 297.5,267.5C 298.038,265.883 298.371,264.216 298.5,262.5C 299.5,262.5 300.5,262.5 301.5,262.5C 301.5,261.167 301.5,259.833 301.5,258.5C 303.881,257.58 306.214,257.58 308.5,258.5C 308.88,256.979 309.046,255.313 309,253.5C 311.04,251.63 312.873,249.63 314.5,247.5C 314.5,247.167 314.5,246.833 314.5,246.5C 316.884,244.115 319.55,242.115 322.5,240.5 Z"/></g>
<g><path style="opacity:1" fill="#c72958" d="M 233.5,260.5 C 234.275,264.051 235.608,267.385 237.5,270.5C 232.559,272.995 233.226,274.329 239.5,274.5C 233.249,278.077 227.249,282.077 221.5,286.5C 220.503,286.53 219.836,286.03 219.5,285C 222.198,281.145 224.198,276.978 225.5,272.5C 227.986,268.364 230.653,264.364 233.5,260.5 Z"/></g>
<g><path style="opacity:1" fill="#5497d5" d="M 258.5,263.5 C 258.833,263.5 259.167,263.5 259.5,263.5C 260.492,263.328 261.158,263.662 261.5,264.5C 262.78,265.931 264.447,266.598 266.5,266.5C 263.003,269.083 259.336,271.416 255.5,273.5C 254.903,273.265 254.57,272.765 254.5,272C 255.711,269.08 257.044,266.247 258.5,263.5 Z"/></g>
<g><path style="opacity:1" fill="#80c9d3" d="M 279.5,261.5 C 282.536,263.553 285.536,265.553 288.5,267.5C 286.122,269.878 283.455,271.878 280.5,273.5C 279.838,269.534 279.505,265.534 279.5,261.5 Z"/></g>
<g><path style="opacity:1" fill="#822647" d="M 353.5,264.5 C 354.124,264.917 354.457,265.584 354.5,266.5C 353.663,269.677 352.663,272.677 351.5,275.5C 351.53,274.503 351.03,273.836 350,273.5C 345.998,275.334 341.832,276.667 337.5,277.5C 336.287,277.747 335.62,278.414 335.5,279.5C 333.847,279.34 332.514,278.674 331.5,277.5C 331.5,276.833 331.5,276.167 331.5,275.5C 332.492,275.672 333.158,275.338 333.5,274.5C 340.14,271.18 346.807,267.847 353.5,264.5 Z"/></g>
<g><path style="opacity:1" fill="#ce2752" d="M 233.5,259.5 C 234.833,260.5 236.167,261.5 237.5,262.5C 238.859,261.993 239.859,260.993 240.5,259.5C 243.39,261.043 245.057,263.376 245.5,266.5C 247.5,266.5 249.5,266.5 251.5,266.5C 247.757,269.581 243.757,272.247 239.5,274.5C 233.226,274.329 232.559,272.995 237.5,270.5C 235.608,267.385 234.275,264.051 233.5,260.5C 233.5,260.167 233.5,259.833 233.5,259.5 Z"/></g>
<g><path style="opacity:1" fill="#591758" d="M 225.5,272.5 C 224.198,276.978 222.198,281.145 219.5,285C 219.836,286.03 220.503,286.53 221.5,286.5C 221.5,287.167 221.167,287.5 220.5,287.5C 217.366,286.099 214.366,284.432 211.5,282.5C 210.34,280.797 211.007,280.131 213.5,280.5C 213.67,279.178 213.337,278.011 212.5,277C 216.89,273.023 221.057,268.857 225,264.5C 225.497,267.146 225.664,269.813 225.5,272.5 Z"/></g>
<g><path style="opacity:1" fill="#1d51ab" d="M 275.5,263.5 C 272.601,266.303 269.934,269.303 267.5,272.5C 265.605,273.703 263.605,274.869 261.5,276C 261.833,276.333 262.167,276.667 262.5,277C 259.764,277.422 257.098,277.422 254.5,277C 254.957,277.414 255.291,277.914 255.5,278.5C 254.476,279.852 253.476,281.185 252.5,282.5C 251.883,282.389 251.383,282.056 251,281.5C 248.191,283.708 245.025,285.041 241.5,285.5C 240.892,284.2 240.225,282.867 239.5,281.5C 239.59,279.575 240.59,278.408 242.5,278C 241.359,277.259 241.359,276.425 242.5,275.5C 245.283,273.588 248.283,273.588 251.5,275.5C 253.171,275.332 254.504,274.665 255.5,273.5C 259.336,271.416 263.003,269.083 266.5,266.5C 269.451,265.306 272.451,264.306 275.5,263.5 Z"/></g>
<g><path style="opacity:1" fill="#376db8" d="M 279.5,261.5 C 279.505,265.534 279.838,269.534 280.5,273.5C 279.5,274.833 278.5,276.167 277.5,277.5C 277.167,277.5 276.833,277.5 276.5,277.5C 276.167,277.5 275.833,277.5 275.5,277.5C 274.833,276.167 274.167,276.167 273.5,277.5C 272.833,277.5 272.167,277.5 271.5,277.5C 271.5,276.167 271.5,274.833 271.5,273.5C 269.901,273.768 268.568,273.434 267.5,272.5C 269.934,269.303 272.601,266.303 275.5,263.5C 276.287,261.896 277.62,261.229 279.5,261.5 Z"/></g>
<g><path style="opacity:1" fill="#63bbf7" d="M 155.5,268.5 C 155.56,267.957 155.893,267.624 156.5,267.5C 164.285,272.059 172.285,276.059 180.5,279.5C 177.5,280.833 174.5,282.167 171.5,283.5C 167.066,284.553 162.732,285.886 158.5,287.5C 157.945,281.846 157.445,276.18 157,270.5C 156.722,269.584 156.222,268.918 155.5,268.5 Z"/></g>
<g><path style="opacity:1" fill="#1c3b7f" d="M 303.5,267.5 C 303.5,270.167 303.5,272.833 303.5,275.5C 302.127,275.343 300.793,275.51 299.5,276C 297.689,277.041 297.355,278.207 298.5,279.5C 296.163,281.396 293.496,282.73 290.5,283.5C 288.176,282.344 285.843,281.344 283.5,280.5C 283.783,279.784 284.116,278.951 284.5,278C 283.833,277.667 283.167,277.333 282.5,277C 284.541,275.758 285.707,273.925 286,271.5C 287.363,269.216 288.863,269.049 290.5,271C 289.376,271.249 288.376,271.749 287.5,272.5C 288.167,272.833 288.833,273.167 289.5,273.5C 292.533,272.518 294.2,270.518 294.5,267.5C 295.5,267.5 296.5,267.5 297.5,267.5C 297.5,268.833 297.5,270.167 297.5,271.5C 302.322,271.439 302.655,270.273 298.5,268C 300.244,266.546 301.911,266.379 303.5,267.5 Z"/></g>
<g><path style="opacity:1" fill="#c8323f" d="M 351.5,275.5 C 351.267,278.542 350.267,281.208 348.5,283.5C 346.983,283.511 345.816,284.177 345,285.5C 343.007,284.086 340.84,283.086 338.5,282.5C 337.306,281.728 336.306,280.728 335.5,279.5C 335.62,278.414 336.287,277.747 337.5,277.5C 341.832,276.667 345.998,275.334 350,273.5C 351.03,273.836 351.53,274.503 351.5,275.5 Z"/></g>
<g><path style="opacity:1" fill="#3e8bdf" d="M 155.5,268.5 C 156.222,268.918 156.722,269.584 157,270.5C 157.445,276.18 157.945,281.846 158.5,287.5C 155.489,287.173 152.989,285.839 151,283.5C 150.506,285.134 150.34,286.801 150.5,288.5C 147.311,283.605 145.977,278.271 146.5,272.5C 149.404,270.88 152.404,269.547 155.5,268.5 Z"/></g>
<g><path style="opacity:1" fill="#e8307b" d="M 316.5,271.5 C 317.791,271.263 318.791,271.596 319.5,272.5C 318.761,272.369 318.094,272.536 317.5,273C 318.466,275.099 319.8,276.932 321.5,278.5C 319.87,281.276 319.203,284.276 319.5,287.5C 320.069,291.329 319.402,294.663 317.5,297.5C 317.665,293.818 317.499,290.152 317,286.5C 314.689,285.603 312.856,284.27 311.5,282.5C 312.167,280.5 312.833,278.5 313.5,276.5C 314.752,274.999 315.752,273.332 316.5,271.5 Z"/></g>
<g><path style="opacity:1" fill="#294da1" d="M 258.5,263.5 C 257.044,266.247 255.711,269.08 254.5,272C 254.57,272.765 254.903,273.265 255.5,273.5C 254.504,274.665 253.171,275.332 251.5,275.5C 248.283,273.588 245.283,273.588 242.5,275.5C 241.359,276.425 241.359,277.259 242.5,278C 240.59,278.408 239.59,279.575 239.5,281.5C 240.225,282.867 240.892,284.2 241.5,285.5C 240.141,286.007 239.141,287.007 238.5,288.5C 237.877,286.034 237.043,283.701 236,281.5C 233.785,284.371 230.951,286.537 227.5,288C 228.551,289.385 229.884,290.385 231.5,291C 230.167,291.667 230.167,292.333 231.5,293C 233.058,293.21 234.391,293.71 235.5,294.5C 234.71,295.401 233.71,296.068 232.5,296.5C 228.5,293.5 224.5,290.5 220.5,287.5C 221.167,287.5 221.5,287.167 221.5,286.5C 227.249,282.077 233.249,278.077 239.5,274.5C 243.757,272.247 247.757,269.581 251.5,266.5C 252.995,266.011 254.329,265.345 255.5,264.5C 256.391,263.89 257.391,263.557 258.5,263.5 Z"/></g>
<g><path style="opacity:1" fill="#96d5f7" d="M 205.5,284.5 C 201.113,287.531 196.446,290.197 191.5,292.5C 191.577,291.25 192.244,290.417 193.5,290C 191.996,288.663 190.996,286.996 190.5,285C 191.548,283.244 191.548,281.41 190.5,279.5C 190.253,278.287 189.586,277.62 188.5,277.5C 187.833,277.5 187.167,277.5 186.5,277.5C 187.261,276.609 188.261,275.942 189.5,275.5C 194.607,279.05 199.941,282.05 205.5,284.5 Z"/></g>
<g><path style="opacity:1" fill="#d43287" d="M 276.5,277.5 C 276.833,277.5 277.167,277.5 277.5,277.5C 279.483,278.471 281.483,279.471 283.5,280.5C 285.843,281.344 288.176,282.344 290.5,283.5C 287.093,284.787 284.093,286.787 281.5,289.5C 279.665,288.878 278.498,287.544 278,285.5C 277.697,283.112 276.863,280.945 275.5,279C 276.056,278.617 276.389,278.117 276.5,277.5 Z"/></g>
<g><path style="opacity:1" fill="#702680" d="M 316.5,271.5 C 315.752,273.332 314.752,274.999 313.5,276.5C 309.253,282.656 305.253,288.99 301.5,295.5C 299.167,298.167 296.833,300.833 294.5,303.5C 294.643,301.738 294.309,300.071 293.5,298.5C 295.045,297.548 296.712,297.215 298.5,297.5C 298.765,292.613 299.765,287.946 301.5,283.5C 301.182,282.353 300.516,281.519 299.5,281C 301.906,280.221 303.573,281.054 304.5,283.5C 305.652,281.603 305.319,279.936 303.5,278.5C 305.076,277.857 306.41,276.857 307.5,275.5C 310.289,273.789 313.289,272.455 316.5,271.5 Z"/></g>
<g><path style="opacity:1" fill="#341f72" d="M 271.5,277.5 C 272.167,277.5 272.833,277.5 273.5,277.5C 273.196,278.15 272.863,278.817 272.5,279.5C 270.328,280.205 268.328,281.205 266.5,282.5C 266.709,283.086 267.043,283.586 267.5,284C 266.027,284.71 265.36,285.876 265.5,287.5C 261.64,287.054 258.64,288.387 256.5,291.5C 253.467,294.863 250.467,298.197 247.5,301.5C 244.921,301.083 242.754,301.75 241,303.5C 240.283,302.956 239.783,302.289 239.5,301.5C 239.351,300.448 239.517,299.448 240,298.5C 241.049,299.517 242.216,299.684 243.5,299C 242.289,298.107 242.289,297.274 243.5,296.5C 244.716,297.002 245.883,297.335 247,297.5C 247.645,296.354 248.478,295.354 249.5,294.5C 247.473,291.493 245.306,291.16 243,293.5C 242.536,292.906 242.369,292.239 242.5,291.5C 252.292,287.104 261.958,282.438 271.5,277.5 Z"/></g>
<g><path style="opacity:1" fill="#f9416e" d="M 327.5,277.5 C 328.833,277.5 330.167,277.5 331.5,277.5C 332.514,278.674 333.847,279.34 335.5,279.5C 336.306,280.728 337.306,281.728 338.5,282.5C 337.761,282.369 337.094,282.536 336.5,283C 336.214,284.388 336.548,285.888 337.5,287.5C 336.265,287.279 335.265,286.612 334.5,285.5C 333.5,286 332.5,286.5 331.5,287C 333.044,287.29 334.377,287.956 335.5,289C 334.485,293.423 333.652,297.923 333,302.5C 332.333,303.167 331.667,303.833 331,304.5C 330.02,302.941 329.187,301.274 328.5,299.5C 327.408,300.831 326.074,301.664 324.5,302C 329.823,303.483 329.823,304.65 324.5,305.5C 322.936,299.645 322.27,293.645 322.5,287.5C 324.604,287.799 326.604,287.466 328.5,286.5C 323.155,286.55 321.822,284.55 324.5,280.5C 323.477,278.105 324.477,277.105 327.5,277.5 Z"/></g>
<g><path style="opacity:1" fill="#349bf5" d="M 158.5,287.5 C 162.732,285.886 167.066,284.553 171.5,283.5C 170.739,284.391 169.739,285.058 168.5,285.5C 167.614,286.325 167.281,287.325 167.5,288.5C 169.467,288.739 171.301,288.406 173,287.5C 172.125,289.311 171.791,291.311 172,293.5C 173.204,292.529 173.704,291.529 173.5,290.5C 175.216,291.549 176.549,292.882 177.5,294.5C 173.197,299.763 174.197,300.763 180.5,297.5C 180.5,298.167 180.5,298.833 180.5,299.5C 174.345,302.097 168.679,305.43 163.5,309.5C 157.986,303.3 153.653,296.3 150.5,288.5C 150.34,286.801 150.506,285.134 151,283.5C 152.989,285.839 155.489,287.173 158.5,287.5 Z"/></g>
<g><path style="opacity:1" fill="#2b9ef7" d="M 186.5,277.5 C 187.167,277.5 187.833,277.5 188.5,277.5C 185.193,283.459 181.527,289.125 177.5,294.5C 176.549,292.882 175.216,291.549 173.5,290.5C 173.704,291.529 173.204,292.529 172,293.5C 171.791,291.311 172.125,289.311 173,287.5C 171.301,288.406 169.467,288.739 167.5,288.5C 167.281,287.325 167.614,286.325 168.5,285.5C 169.739,285.058 170.739,284.391 171.5,283.5C 174.5,282.167 177.5,280.833 180.5,279.5C 182.214,278.262 184.214,277.595 186.5,277.5 Z"/></g>
<g><path style="opacity:1" fill="#7d2b86" d="M 275.5,277.5 C 275.833,277.5 276.167,277.5 276.5,277.5C 276.389,278.117 276.056,278.617 275.5,279C 276.863,280.945 277.697,283.112 278,285.5C 278.498,287.544 279.665,288.878 281.5,289.5C 275.688,291.63 270.355,294.796 265.5,299C 264.251,299.74 263.251,299.573 262.5,298.5C 266.647,291.405 270.98,284.405 275.5,277.5 Z"/></g>
<g><path style="opacity:1" fill="#672785" d="M 303.5,278.5 C 305.319,279.936 305.652,281.603 304.5,283.5C 303.573,281.054 301.906,280.221 299.5,281C 300.516,281.519 301.182,282.353 301.5,283.5C 299.765,287.946 298.765,292.613 298.5,297.5C 296.712,297.215 295.045,297.548 293.5,298.5C 294.309,300.071 294.643,301.738 294.5,303.5C 293.471,305.517 292.471,307.517 291.5,309.5C 291.167,309.5 290.833,309.5 290.5,309.5C 289.833,307.833 289.167,306.167 288.5,304.5C 289.632,302.533 289.299,300.7 287.5,299C 288.516,298.481 289.182,297.647 289.5,296.5C 288.311,293.957 286.978,291.457 285.5,289C 285.833,288.667 286.167,288.333 286.5,288C 284.956,288.487 283.29,288.987 281.5,289.5C 284.093,286.787 287.093,284.787 290.5,283.5C 293.496,282.73 296.163,281.396 298.5,279.5C 300.292,279.634 301.958,279.301 303.5,278.5 Z"/></g>
<g><path style="opacity:1" fill="#ea2f7a" d="M 311.5,282.5 C 312.856,284.27 314.689,285.603 317,286.5C 317.499,290.152 317.665,293.818 317.5,297.5C 317.928,301.675 317.261,306.009 315.5,310.5C 315.79,312.044 316.456,313.377 317.5,314.5C 316.147,315.524 315.48,316.857 315.5,318.5C 316.833,318.5 318.167,318.5 319.5,318.5C 318.101,319.89 316.434,320.89 314.5,321.5C 312.61,321.297 311.11,321.963 310,323.5C 306.585,321.042 307.085,319.709 311.5,319.5C 310.647,317.403 310.647,315.403 311.5,313.5C 310.453,311.944 309.786,310.277 309.5,308.5C 312.109,306.276 312.109,303.942 309.5,301.5C 310.167,299.833 310.833,298.167 311.5,296.5C 311.333,295.833 311.167,295.167 311,294.5C 310.282,295.451 309.449,295.617 308.5,295C 309.376,293.414 310.376,291.914 311.5,290.5C 310.885,288.884 309.885,287.551 308.5,286.5C 309.521,285.099 310.521,283.765 311.5,282.5 Z"/></g>
<g><path style="opacity:1" fill="#fb566d" d="M 338.5,282.5 C 340.84,283.086 343.007,284.086 345,285.5C 345.816,284.177 346.983,283.511 348.5,283.5C 346.124,291.254 342.458,298.254 337.5,304.5C 337.247,302.173 337.914,300.173 339.5,298.5C 337.263,294.994 336.596,291.328 337.5,287.5C 336.548,285.888 336.214,284.388 336.5,283C 337.094,282.536 337.761,282.369 338.5,282.5 Z"/></g>
<g><path style="opacity:1" fill="#2f66bb" d="M 267.5,272.5 C 268.568,273.434 269.901,273.768 271.5,273.5C 271.5,274.833 271.5,276.167 271.5,277.5C 261.958,282.438 252.292,287.104 242.5,291.5C 240.703,292.73 238.703,293.396 236.5,293.5C 239.062,291.552 242.062,290.052 245.5,289C 243.205,288.016 243.539,287.183 246.5,286.5C 247.086,286.709 247.586,287.043 248,287.5C 249.754,285.75 251.921,285.083 254.5,285.5C 254.715,283.821 254.048,282.821 252.5,282.5C 253.476,281.185 254.476,279.852 255.5,278.5C 255.291,277.914 254.957,277.414 254.5,277C 257.098,277.422 259.764,277.422 262.5,277C 262.167,276.667 261.833,276.333 261.5,276C 263.605,274.869 265.605,273.703 267.5,272.5 Z"/></g>
<g><path style="opacity:1" fill="#1c51b1" d="M 241.5,285.5 C 245.025,285.041 248.191,283.708 251,281.5C 251.383,282.056 251.883,282.389 252.5,282.5C 254.048,282.821 254.715,283.821 254.5,285.5C 251.921,285.083 249.754,285.75 248,287.5C 247.586,287.043 247.086,286.709 246.5,286.5C 243.539,287.183 243.205,288.016 245.5,289C 242.062,290.052 239.062,291.552 236.5,293.5C 236.5,294.167 236.167,294.5 235.5,294.5C 234.391,293.71 233.058,293.21 231.5,293C 230.167,292.333 230.167,291.667 231.5,291C 229.884,290.385 228.551,289.385 227.5,288C 230.951,286.537 233.785,284.371 236,281.5C 237.043,283.701 237.877,286.034 238.5,288.5C 239.141,287.007 240.141,286.007 241.5,285.5 Z"/></g>
<g><path style="opacity:1" fill="#5dbdfa" d="M 188.5,277.5 C 189.586,277.62 190.253,278.287 190.5,279.5C 191.548,281.41 191.548,283.244 190.5,285C 190.996,286.996 191.996,288.663 193.5,290C 192.244,290.417 191.577,291.25 191.5,292.5C 188.249,294.957 184.582,296.624 180.5,297.5C 174.197,300.763 173.197,299.763 177.5,294.5C 181.527,289.125 185.193,283.459 188.5,277.5 Z"/></g>
<g><path style="opacity:1" fill="#65bbf5" d="M 211.5,282.5 C 214.366,284.432 217.366,286.099 220.5,287.5C 224.5,290.5 228.5,293.5 232.5,296.5C 230.046,297.227 227.713,298.227 225.5,299.5C 220.337,302.221 215.004,304.554 209.5,306.5C 208.903,306.265 208.57,305.765 208.5,305C 209.233,297.518 209.9,290.352 210.5,283.5C 210.5,282.833 210.833,282.5 211.5,282.5 Z"/></g>
<g><path style="opacity:1" fill="#342172" d="M 242.5,291.5 C 242.369,292.239 242.536,292.906 243,293.5C 245.306,291.16 247.473,291.493 249.5,294.5C 248.478,295.354 247.645,296.354 247,297.5C 245.883,297.335 244.716,297.002 243.5,296.5C 242.289,297.274 242.289,298.107 243.5,299C 242.216,299.684 241.049,299.517 240,298.5C 239.517,299.448 239.351,300.448 239.5,301.5C 237.708,301.366 236.042,301.699 234.5,302.5C 232.758,302.348 230.924,302.348 229,302.5C 228.667,301.5 228.333,300.5 228,299.5C 227.023,300.774 226.189,300.774 225.5,299.5C 227.713,298.227 230.046,297.227 232.5,296.5C 233.71,296.068 234.71,295.401 235.5,294.5C 236.167,294.5 236.5,294.167 236.5,293.5C 238.703,293.396 240.703,292.73 242.5,291.5 Z"/></g>
<g><path style="opacity:1" fill="#49217a" d="M 275.5,277.5 C 270.98,284.405 266.647,291.405 262.5,298.5C 260.859,299.147 259.526,300.147 258.5,301.5C 258.481,299.94 258.148,298.44 257.5,297C 257.82,295.347 258.82,294.347 260.5,294C 259.809,292.933 259.309,291.766 259,290.5C 258.329,291.252 257.496,291.586 256.5,291.5C 258.64,288.387 261.64,287.054 265.5,287.5C 265.36,285.876 266.027,284.71 267.5,284C 267.043,283.586 266.709,283.086 266.5,282.5C 268.328,281.205 270.328,280.205 272.5,279.5C 272.863,278.817 273.196,278.15 273.5,277.5C 274.167,276.167 274.833,276.167 275.5,277.5 Z"/></g>
<g><path style="opacity:1" fill="#1852b6" d="M 205.5,284.5 C 206.167,284.5 206.833,284.5 207.5,284.5C 207.855,287.548 207.189,290.548 205.5,293.5C 202.325,294.182 200.825,296.182 201,299.5C 199.391,298.85 197.891,299.35 196.5,301C 197.5,301.333 198.5,301.667 199.5,302C 197.47,302.548 195.47,303.715 193.5,305.5C 191.807,303.234 189.64,302.9 187,304.5C 183.643,303.258 183.81,302.424 187.5,302C 185.576,299.449 183.243,298.616 180.5,299.5C 180.5,298.833 180.5,298.167 180.5,297.5C 184.582,296.624 188.249,294.957 191.5,292.5C 196.446,290.197 201.113,287.531 205.5,284.5 Z"/></g>
<g><path style="opacity:1" fill="#f83c76" d="M 319.5,272.5 C 320.167,272.5 320.833,272.5 321.5,272.5C 321.842,273.338 322.508,273.672 323.5,273.5C 325.041,274.667 326.375,276 327.5,277.5C 324.477,277.105 323.477,278.105 324.5,280.5C 321.822,284.55 323.155,286.55 328.5,286.5C 326.604,287.466 324.604,287.799 322.5,287.5C 322.27,293.645 322.936,299.645 324.5,305.5C 323.244,307.726 323.244,310.059 324.5,312.5C 323.176,313.85 322.176,313.683 321.5,312C 321.911,310.856 322.244,309.689 322.5,308.5C 321.332,301.378 320.332,294.378 319.5,287.5C 319.203,284.276 319.87,281.276 321.5,278.5C 319.8,276.932 318.466,275.099 317.5,273C 318.094,272.536 318.761,272.369 319.5,272.5 Z"/></g>
<g><path style="opacity:1" fill="#5f2484" d="M 288.5,304.5 C 285.043,305.515 284.71,304.681 287.5,302C 286.167,301.833 284.833,301.667 283.5,301.5C 280.31,302.655 276.977,303.322 273.5,303.5C 273.918,302.778 274.584,302.278 275.5,302C 273.113,301.436 271.113,300.27 269.5,298.5C 266.876,299.959 264.542,301.625 262.5,303.5C 260.735,303.815 259.069,303.815 257.5,303.5C 257.328,302.508 257.662,301.842 258.5,301.5C 259.526,300.147 260.859,299.147 262.5,298.5C 263.251,299.573 264.251,299.74 265.5,299C 270.355,294.796 275.688,291.63 281.5,289.5C 283.29,288.987 284.956,288.487 286.5,288C 286.167,288.333 285.833,288.667 285.5,289C 286.978,291.457 288.311,293.957 289.5,296.5C 289.182,297.647 288.516,298.481 287.5,299C 289.299,300.7 289.632,302.533 288.5,304.5 Z"/></g>
<g><path style="opacity:1" fill="#2a73d1" d="M 210.5,283.5 C 209.9,290.352 209.233,297.518 208.5,305C 208.57,305.765 208.903,306.265 209.5,306.5C 208.167,307.5 206.833,308.5 205.5,309.5C 202.406,310.213 199.406,311.213 196.5,312.5C 198.449,310.021 200.782,307.854 203.5,306C 201.956,305.71 200.623,305.044 199.5,304C 202.01,300.827 204.01,297.327 205.5,293.5C 207.189,290.548 207.855,287.548 207.5,284.5C 208.105,282.519 209.105,282.185 210.5,283.5 Z"/></g>
<g><path style="opacity:1" fill="#e43081" d="M 313.5,276.5 C 312.833,278.5 312.167,280.5 311.5,282.5C 310.521,283.765 309.521,285.099 308.5,286.5C 309.885,287.551 310.885,288.884 311.5,290.5C 310.376,291.914 309.376,293.414 308.5,295C 309.449,295.617 310.282,295.451 311,294.5C 311.167,295.167 311.333,295.833 311.5,296.5C 310.833,298.167 310.167,299.833 309.5,301.5C 312.109,303.942 312.109,306.276 309.5,308.5C 309.607,306.621 309.107,306.288 308,307.5C 306.322,311.365 305.155,315.365 304.5,319.5C 303.21,318.942 302.377,317.942 302,316.5C 300.844,317.993 300.01,317.826 299.5,316C 299.95,314.715 300.617,313.548 301.5,312.5C 298.833,311.167 298.833,309.833 301.5,308.5C 300.675,307.614 299.675,307.281 298.5,307.5C 296.014,306.05 296.347,304.884 299.5,304C 298.85,302.391 299.35,300.891 301,299.5C 301.49,298.207 301.657,296.873 301.5,295.5C 305.253,288.99 309.253,282.656 313.5,276.5 Z"/></g>
<g><path style="opacity:1" fill="#331f72" d="M 225.5,299.5 C 226.189,300.774 227.023,300.774 228,299.5C 228.333,300.5 228.667,301.5 229,302.5C 230.924,302.348 232.758,302.348 234.5,302.5C 236.158,303.181 237.825,304.015 239.5,305C 237.385,305.424 236.552,306.591 237,308.5C 238.615,306.095 239.281,306.095 239,308.5C 237.989,309.337 236.822,309.67 235.5,309.5C 233.076,309.192 230.743,309.526 228.5,310.5C 228.709,311.086 229.043,311.586 229.5,312C 226.28,313.266 223.947,315.433 222.5,318.5C 219.721,317.602 217.388,316.269 215.5,314.5C 221.487,315.568 221.487,314.235 215.5,310.5C 212.113,309.036 208.78,308.702 205.5,309.5C 206.833,308.5 208.167,307.5 209.5,306.5C 215.004,304.554 220.337,302.221 225.5,299.5 Z"/></g>
<g><path style="opacity:1" fill="#49227f" d="M 258.5,301.5 C 257.662,301.842 257.328,302.508 257.5,303.5C 255.122,304.692 253.122,306.359 251.5,308.5C 247.885,310.277 244.385,312.277 241,314.5C 240.617,313.944 240.117,313.611 239.5,313.5C 239.369,312.761 239.536,312.094 240,311.5C 240.718,312.451 241.551,312.617 242.5,312C 244.728,309.775 246.561,307.275 248,304.5C 249.205,303.929 250.372,303.262 251.5,302.5C 250.39,302.624 249.056,302.291 247.5,301.5C 250.467,298.197 253.467,294.863 256.5,291.5C 257.496,291.586 258.329,291.252 259,290.5C 259.309,291.766 259.809,292.933 260.5,294C 258.82,294.347 257.82,295.347 257.5,297C 258.148,298.44 258.481,299.94 258.5,301.5 Z"/></g>
<g><path style="opacity:1" fill="#f94269" d="M 337.5,287.5 C 336.596,291.328 337.263,294.994 339.5,298.5C 337.914,300.173 337.247,302.173 337.5,304.5C 337.068,305.71 336.401,306.71 335.5,307.5C 333.932,306.527 332.265,306.36 330.5,307C 328.581,308.918 326.581,310.751 324.5,312.5C 323.244,310.059 323.244,307.726 324.5,305.5C 329.823,304.65 329.823,303.483 324.5,302C 326.074,301.664 327.408,300.831 328.5,299.5C 329.187,301.274 330.02,302.941 331,304.5C 331.667,303.833 332.333,303.167 333,302.5C 333.652,297.923 334.485,293.423 335.5,289C 334.377,287.956 333.044,287.29 331.5,287C 332.5,286.5 333.5,286 334.5,285.5C 335.265,286.612 336.265,287.279 337.5,287.5 Z"/></g>
<g><path style="opacity:1" fill="#1f53bb" d="M 193.5,305.5 C 191.956,305.703 190.622,306.37 189.5,307.5C 185.434,312.147 181.768,316.48 178.5,320.5C 177.449,321.222 176.782,322.222 176.5,323.5C 171.46,319.461 167.127,314.794 163.5,309.5C 168.679,305.43 174.345,302.097 180.5,299.5C 183.243,298.616 185.576,299.449 187.5,302C 183.81,302.424 183.643,303.258 187,304.5C 189.64,302.9 191.807,303.234 193.5,305.5 Z"/></g>
<g><path style="opacity:1" fill="#5a2489" d="M 262.5,303.5 C 263.164,305.978 263.497,308.645 263.5,311.5C 263.156,315.595 262.49,319.595 261.5,323.5C 257.931,326.638 255.931,330.638 255.5,335.5C 253.167,335.5 250.833,335.5 248.5,335.5C 248,329.537 247,323.537 245.5,317.5C 246.135,316.034 246.969,314.7 248,313.5C 248.333,313.833 248.667,314.167 249,314.5C 249.236,312.189 250.069,310.189 251.5,308.5C 253.122,306.359 255.122,304.692 257.5,303.5C 259.069,303.815 260.735,303.815 262.5,303.5 Z"/></g>
<g><path style="opacity:1" fill="#6a2487" d="M 288.5,304.5 C 289.167,306.167 289.833,307.833 290.5,309.5C 286.399,316.219 282.066,322.552 277.5,328.5C 277.079,325.343 278.245,323.01 281,321.5C 281.895,318.534 281.395,315.867 279.5,313.5C 278.378,314.63 277.044,315.297 275.5,315.5C 276.45,312.885 278.117,310.885 280.5,309.5C 279.846,307.885 279.346,306.218 279,304.5C 275.611,311.42 273.778,311.086 273.5,303.5C 276.977,303.322 280.31,302.655 283.5,301.5C 284.833,301.667 286.167,301.833 287.5,302C 284.71,304.681 285.043,305.515 288.5,304.5 Z"/></g>
<g><path style="opacity:1" fill="#eb3677" d="M 319.5,287.5 C 320.332,294.378 321.332,301.378 322.5,308.5C 322.244,309.689 321.911,310.856 321.5,312C 322.176,313.683 323.176,313.85 324.5,312.5C 326.581,310.751 328.581,308.918 330.5,307C 332.265,306.36 333.932,306.527 335.5,307.5C 334.299,309.909 332.633,311.909 330.5,313.5C 327.548,314.983 324.381,315.983 321,316.5C 319.97,316.836 319.47,317.503 319.5,318.5C 318.167,318.5 316.833,318.5 315.5,318.5C 315.48,316.857 316.147,315.524 317.5,314.5C 316.456,313.377 315.79,312.044 315.5,310.5C 317.261,306.009 317.928,301.675 317.5,297.5C 319.402,294.663 320.069,291.329 319.5,287.5 Z"/></g>
<g><path style="opacity:1" fill="#2160c4" d="M 205.5,293.5 C 204.01,297.327 202.01,300.827 199.5,304C 200.623,305.044 201.956,305.71 203.5,306C 200.782,307.854 198.449,310.021 196.5,312.5C 190.815,315.734 184.815,318.401 178.5,320.5C 181.768,316.48 185.434,312.147 189.5,307.5C 190.622,306.37 191.956,305.703 193.5,305.5C 195.47,303.715 197.47,302.548 199.5,302C 198.5,301.667 197.5,301.333 196.5,301C 197.891,299.35 199.391,298.85 201,299.5C 200.825,296.182 202.325,294.182 205.5,293.5 Z"/></g>
<g><path style="opacity:1" fill="#42237b" d="M 239.5,301.5 C 239.783,302.289 240.283,302.956 241,303.5C 242.754,301.75 244.921,301.083 247.5,301.5C 249.056,302.291 250.39,302.624 251.5,302.5C 250.372,303.262 249.205,303.929 248,304.5C 246.561,307.275 244.728,309.775 242.5,312C 241.551,312.617 240.718,312.451 240,311.5C 239.536,312.094 239.369,312.761 239.5,313.5C 239.5,314.5 239.5,315.5 239.5,316.5C 237.821,316.285 236.821,316.952 236.5,318.5C 236.167,318.5 235.833,318.5 235.5,318.5C 232.332,319.587 229.332,320.92 226.5,322.5C 226.586,321.504 226.252,320.671 225.5,320C 227.952,319.71 230.285,319.044 232.5,318C 231.833,317.667 231.167,317.333 230.5,317C 231.5,314.667 233.167,313 235.5,312C 234.833,311.667 234.167,311.333 233.5,311C 234.416,310.722 235.082,310.222 235.5,309.5C 236.822,309.67 237.989,309.337 239,308.5C 239.281,306.095 238.615,306.095 237,308.5C 236.552,306.591 237.385,305.424 239.5,305C 237.825,304.015 236.158,303.181 234.5,302.5C 236.042,301.699 237.708,301.366 239.5,301.5 Z"/></g>
<g><path style="opacity:1" fill="#e8307e" d="M 309.5,308.5 C 309.786,310.277 310.453,311.944 311.5,313.5C 310.647,315.403 310.647,317.403 311.5,319.5C 307.085,319.709 306.585,321.042 310,323.5C 311.11,321.963 312.61,321.297 314.5,321.5C 311.833,323.833 309.167,326.167 306.5,328.5C 304.483,329.529 302.483,330.529 300.5,331.5C 298.833,331.5 297.167,331.5 295.5,331.5C 295.929,327.976 297.429,324.976 300,322.5C 300.667,323.167 301.333,323.833 302,324.5C 302.195,322.793 302.195,321.126 302,319.5C 303.241,321.421 304.741,321.754 306.5,320.5C 306.043,319.702 305.376,319.369 304.5,319.5C 305.155,315.365 306.322,311.365 308,307.5C 309.107,306.288 309.607,306.621 309.5,308.5 Z"/></g>
<g><path style="opacity:1" fill="#302170" d="M 215.5,314.5 C 214.828,313.733 213.995,313.066 213,312.5C 209.805,313.149 206.639,313.982 203.5,315C 204.653,316.883 206.319,317.716 208.5,317.5C 207.685,318.837 206.518,319.837 205,320.5C 204,319.167 203,317.833 202,316.5C 200.989,317.337 199.822,317.67 198.5,317.5C 197.448,317.649 196.448,317.483 195.5,317C 198.428,313.898 201.761,311.398 205.5,309.5C 208.78,308.702 212.113,309.036 215.5,310.5C 221.487,314.235 221.487,315.568 215.5,314.5 Z"/></g>
<g><path style="opacity:1" fill="#3b2179" d="M 235.5,309.5 C 235.082,310.222 234.416,310.722 233.5,311C 234.167,311.333 234.833,311.667 235.5,312C 233.167,313 231.5,314.667 230.5,317C 231.167,317.333 231.833,317.667 232.5,318C 230.285,319.044 227.952,319.71 225.5,320C 226.252,320.671 226.586,321.504 226.5,322.5C 224.583,323.116 223.416,324.45 223,326.5C 222.667,326.167 222.333,325.833 222,325.5C 217.308,328.685 212.474,331.685 207.5,334.5C 207.511,332.983 208.177,331.816 209.5,331C 211.772,330.059 213.772,328.726 215.5,327C 214.833,326.667 214.167,326.333 213.5,326C 214.381,325.292 215.047,324.458 215.5,323.5C 215.721,320.903 216.221,320.903 217,323.5C 218.241,322.123 218.408,320.79 217.5,319.5C 216.086,318.376 214.586,317.376 213,316.5C 211.644,317.38 210.144,317.714 208.5,317.5C 206.319,317.716 204.653,316.883 203.5,315C 206.639,313.982 209.805,313.149 213,312.5C 213.995,313.066 214.828,313.733 215.5,314.5C 217.388,316.269 219.721,317.602 222.5,318.5C 223.947,315.433 226.28,313.266 229.5,312C 229.043,311.586 228.709,311.086 228.5,310.5C 230.743,309.526 233.076,309.192 235.5,309.5 Z"/></g>
<g><path style="opacity:1" fill="#5c2587" d="M 269.5,298.5 C 268.548,300.112 268.214,301.612 268.5,303C 269.253,304.487 270.086,304.654 271,303.5C 271.713,308.934 270.213,313.601 266.5,317.5C 265.534,319.396 265.201,321.396 265.5,323.5C 264.167,323.5 262.833,323.5 261.5,323.5C 262.49,319.595 263.156,315.595 263.5,311.5C 263.497,308.645 263.164,305.978 262.5,303.5C 264.542,301.625 266.876,299.959 269.5,298.5 Z"/></g>
<g><path style="opacity:1" fill="#5f268a" d="M 269.5,298.5 C 271.113,300.27 273.113,301.436 275.5,302C 274.584,302.278 273.918,302.778 273.5,303.5C 273.778,311.086 275.611,311.42 279,304.5C 279.346,306.218 279.846,307.885 280.5,309.5C 278.117,310.885 276.45,312.885 275.5,315.5C 271.247,315.852 269.247,318.518 269.5,323.5C 266.657,327.477 263.991,331.81 261.5,336.5C 262.723,339.116 264.057,341.616 265.5,344C 264.737,344.944 263.737,345.444 262.5,345.5C 260.291,342.038 257.957,341.871 255.5,345C 257.437,345.122 258.77,345.955 259.5,347.5C 256.401,347.908 254.067,346.741 252.5,344C 253.167,343.333 253.833,342.667 254.5,342C 252.694,341.19 251.194,340.024 250,338.5C 249.098,338.743 248.265,339.077 247.5,339.5C 247.577,338.25 248.244,337.417 249.5,337C 248.944,336.617 248.611,336.117 248.5,335.5C 250.833,335.5 253.167,335.5 255.5,335.5C 255.931,330.638 257.931,326.638 261.5,323.5C 262.833,323.5 264.167,323.5 265.5,323.5C 265.201,321.396 265.534,319.396 266.5,317.5C 270.213,313.601 271.713,308.934 271,303.5C 270.086,304.654 269.253,304.487 268.5,303C 268.214,301.612 268.548,300.112 269.5,298.5 Z"/></g>
<g><path style="opacity:1" fill="#e22d83" d="M 298.5,307.5 C 299.675,307.281 300.675,307.614 301.5,308.5C 298.833,309.833 298.833,311.167 301.5,312.5C 300.617,313.548 299.95,314.715 299.5,316C 300.01,317.826 300.844,317.993 302,316.5C 302.377,317.942 303.21,318.942 304.5,319.5C 305.376,319.369 306.043,319.702 306.5,320.5C 304.741,321.754 303.241,321.421 302,319.5C 302.195,321.126 302.195,322.793 302,324.5C 301.333,323.833 300.667,323.167 300,322.5C 297.429,324.976 295.929,327.976 295.5,331.5C 297.167,331.5 298.833,331.5 300.5,331.5C 299.5,333.167 298.167,334.5 296.5,335.5C 294.833,335.5 293.167,335.5 291.5,335.5C 291.278,332.61 291.945,329.943 293.5,327.5C 292.975,326.808 292.308,326.308 291.5,326C 294.29,325.439 296.623,324.106 298.5,322C 297.865,317.633 296.532,313.466 294.5,309.5C 296.095,310.044 297.429,309.377 298.5,307.5 Z"/></g>
<g><path style="opacity:1" fill="#592787" d="M 251.5,308.5 C 250.069,310.189 249.236,312.189 249,314.5C 248.667,314.167 248.333,313.833 248,313.5C 246.969,314.7 246.135,316.034 245.5,317.5C 247,323.537 248,329.537 248.5,335.5C 248.611,336.117 248.944,336.617 249.5,337C 248.244,337.417 247.577,338.25 247.5,339.5C 246.366,342.559 245.033,345.559 243.5,348.5C 245.078,349.298 246.744,349.798 248.5,350C 244.312,350.176 240.312,350.676 236.5,351.5C 234.265,351.795 232.265,351.461 230.5,350.5C 231.5,349.833 232.5,349.167 233.5,348.5C 236.142,346.823 238.309,344.823 240,342.5C 242.882,335.119 244.048,327.452 243.5,319.5C 241.05,319.702 238.717,319.369 236.5,318.5C 236.821,316.952 237.821,316.285 239.5,316.5C 239.5,315.5 239.5,314.5 239.5,313.5C 240.117,313.611 240.617,313.944 241,314.5C 244.385,312.277 247.885,310.277 251.5,308.5 Z"/></g>
<g><path style="opacity:1" fill="#331f74" d="M 208.5,317.5 C 210.144,317.714 211.644,317.38 213,316.5C 214.586,317.376 216.086,318.376 217.5,319.5C 218.408,320.79 218.241,322.123 217,323.5C 216.221,320.903 215.721,320.903 215.5,323.5C 214.504,323.586 213.671,323.252 213,322.5C 212.517,323.448 212.351,324.448 212.5,325.5C 209.115,326.689 205.948,328.356 203,330.5C 202.667,330.167 202.333,329.833 202,329.5C 200.595,331.651 198.761,333.318 196.5,334.5C 194.949,333.2 193.949,331.533 193.5,329.5C 194.844,327.965 196.511,326.632 198.5,325.5C 199.248,323.668 200.248,322.001 201.5,320.5C 200.23,319.712 199.23,318.712 198.5,317.5C 199.822,317.67 200.989,317.337 202,316.5C 203,317.833 204,319.167 205,320.5C 206.518,319.837 207.685,318.837 208.5,317.5 Z"/></g>
<g><path style="opacity:1" fill="#552688" d="M 235.5,318.5 C 235.833,318.5 236.167,318.5 236.5,318.5C 238.717,319.369 241.05,319.702 243.5,319.5C 244.048,327.452 242.882,335.119 240,342.5C 238.309,344.823 236.142,346.823 233.5,348.5C 230.154,347.997 226.821,347.33 223.5,346.5C 226.107,345.682 228.774,345.182 231.5,345C 229.405,344.444 229.238,343.944 231,343.5C 232.646,345.141 233.646,344.807 234,342.5C 234.333,343.167 234.667,343.833 235,344.5C 238.073,342.312 238.073,340.312 235,338.5C 233.667,342.5 232.333,342.5 231,338.5C 230.626,339.416 230.126,340.25 229.5,341C 227.527,341.495 225.527,341.662 223.5,341.5C 223.5,340.167 223.5,338.833 223.5,337.5C 227.495,338.613 231.495,338.28 235.5,336.5C 235.376,335.893 235.043,335.56 234.5,335.5C 234.253,332.843 233.253,330.51 231.5,328.5C 233.423,327.692 235.423,327.192 237.5,327C 234.526,325.494 234.193,323.828 236.5,322C 236.381,320.855 236.048,319.688 235.5,318.5 Z"/></g>
<g><path style="opacity:1" fill="#301e73" d="M 205.5,309.5 C 201.761,311.398 198.428,313.898 195.5,317C 196.448,317.483 197.448,317.649 198.5,317.5C 199.23,318.712 200.23,319.712 201.5,320.5C 200.248,322.001 199.248,323.668 198.5,325.5C 196.511,326.632 194.844,327.965 193.5,329.5C 192.448,329.351 191.448,329.517 190.5,330C 191.888,330.889 191.722,331.389 190,331.5C 187.852,330.27 186.185,328.603 185,326.5C 184.439,327.022 183.772,327.355 183,327.5C 181.594,326.586 180.094,325.92 178.5,325.5C 177.5,325.167 176.833,324.5 176.5,323.5C 176.782,322.222 177.449,321.222 178.5,320.5C 184.815,318.401 190.815,315.734 196.5,312.5C 199.406,311.213 202.406,310.213 205.5,309.5 Z"/></g>
<g><path style="opacity:1" fill="#dd2d86" d="M 301.5,295.5 C 301.657,296.873 301.49,298.207 301,299.5C 299.35,300.891 298.85,302.391 299.5,304C 296.347,304.884 296.014,306.05 298.5,307.5C 297.429,309.377 296.095,310.044 294.5,309.5C 296.532,313.466 297.865,317.633 298.5,322C 296.623,324.106 294.29,325.439 291.5,326C 292.308,326.308 292.975,326.808 293.5,327.5C 291.945,329.943 291.278,332.61 291.5,335.5C 289.749,332.83 288.249,329.83 287,326.5C 286.124,328.725 284.957,330.725 283.5,332.5C 282.83,330.709 282.163,329.042 281.5,327.5C 282.261,326.609 283.261,325.942 284.5,325.5C 285.081,322.625 286.081,319.958 287.5,317.5C 289.809,316.067 291.309,316.734 292,319.5C 291.799,316.223 291.632,312.889 291.5,309.5C 292.471,307.517 293.471,305.517 294.5,303.5C 296.833,300.833 299.167,298.167 301.5,295.5 Z"/></g>
<g><path style="opacity:1" fill="#662689" d="M 277.5,328.5 C 276.66,330.853 275.326,332.853 273.5,334.5C 272.951,332.313 271.785,331.646 270,332.5C 269.758,329.303 269.592,326.303 269.5,323.5C 269.247,318.518 271.247,315.852 275.5,315.5C 277.044,315.297 278.378,314.63 279.5,313.5C 281.395,315.867 281.895,318.534 281,321.5C 278.245,323.01 277.079,325.343 277.5,328.5 Z"/></g>
<g><path style="opacity:1" fill="#ab3874" d="M 330.5,313.5 C 322.939,323.115 313.939,331.115 303.5,337.5C 303.25,334.495 304.583,332.662 307.5,332C 306.5,331.667 305.5,331.333 304.5,331C 305.756,330.583 306.423,329.75 306.5,328.5C 309.167,326.167 311.833,323.833 314.5,321.5C 316.434,320.89 318.101,319.89 319.5,318.5C 319.47,317.503 319.97,316.836 321,316.5C 324.381,315.983 327.548,314.983 330.5,313.5 Z"/></g>
<g><path style="opacity:1" fill="#67258a" d="M 269.5,323.5 C 269.592,326.303 269.758,329.303 270,332.5C 271.785,331.646 272.951,332.313 273.5,334.5C 270.726,337.713 268.726,341.38 267.5,345.5C 265.204,346.733 263.87,348.733 263.5,351.5C 262.833,351.5 262.167,351.5 261.5,351.5C 257.688,350.676 253.688,350.176 249.5,350C 253.311,350.083 256.645,349.25 259.5,347.5C 258.77,345.955 257.437,345.122 255.5,345C 257.957,341.871 260.291,342.038 262.5,345.5C 263.737,345.444 264.737,344.944 265.5,344C 264.057,341.616 262.723,339.116 261.5,336.5C 263.991,331.81 266.657,327.477 269.5,323.5 Z"/></g>
<g><path style="opacity:1" fill="#d92c86" d="M 291.5,335.5 C 293.167,335.5 294.833,335.5 296.5,335.5C 293.786,338.215 290.786,340.549 287.5,342.5C 283.573,340.755 279.573,339.088 275.5,337.5C 277.965,334.386 279.965,331.053 281.5,327.5C 282.163,329.042 282.83,330.709 283.5,332.5C 284.957,330.725 286.124,328.725 287,326.5C 288.249,329.83 289.749,332.83 291.5,335.5 Z"/></g>
<g><path style="opacity:1" fill="#3a2577" d="M 215.5,323.5 C 215.047,324.458 214.381,325.292 213.5,326C 214.167,326.333 214.833,326.667 215.5,327C 213.772,328.726 211.772,330.059 209.5,331C 208.177,331.816 207.511,332.983 207.5,334.5C 206.833,335.167 206.167,335.833 205.5,336.5C 203.821,336.892 202.154,337.392 200.5,338C 201.167,338.333 201.833,338.667 202.5,339C 201.207,339.49 199.873,339.657 198.5,339.5C 191.096,335.806 184.429,331.139 178.5,325.5C 180.094,325.92 181.594,326.586 183,327.5C 183.772,327.355 184.439,327.022 185,326.5C 186.185,328.603 187.852,330.27 190,331.5C 191.722,331.389 191.888,330.889 190.5,330C 191.448,329.517 192.448,329.351 193.5,329.5C 193.949,331.533 194.949,333.2 196.5,334.5C 198.761,333.318 200.595,331.651 202,329.5C 202.333,329.833 202.667,330.167 203,330.5C 205.948,328.356 209.115,326.689 212.5,325.5C 212.351,324.448 212.517,323.448 213,322.5C 213.671,323.252 214.504,323.586 215.5,323.5 Z"/></g>
<g><path style="opacity:1" fill="#512585" d="M 235.5,318.5 C 236.048,319.688 236.381,320.855 236.5,322C 234.193,323.828 234.526,325.494 237.5,327C 235.423,327.192 233.423,327.692 231.5,328.5C 233.253,330.51 234.253,332.843 234.5,335.5C 230.047,335.562 225.381,335.729 220.5,336C 218.798,337.718 216.965,337.885 215,336.5C 214.612,337.428 213.945,338.095 213,338.5C 210.447,337.892 207.947,337.225 205.5,336.5C 206.167,335.833 206.833,335.167 207.5,334.5C 212.474,331.685 217.308,328.685 222,325.5C 222.333,325.833 222.667,326.167 223,326.5C 223.416,324.45 224.583,323.116 226.5,322.5C 229.332,320.92 232.332,319.587 235.5,318.5 Z"/></g>
<g><path style="opacity:1" fill="#d03193" d="M 290.5,309.5 C 290.833,309.5 291.167,309.5 291.5,309.5C 291.632,312.889 291.799,316.223 292,319.5C 291.309,316.734 289.809,316.067 287.5,317.5C 286.081,319.958 285.081,322.625 284.5,325.5C 283.261,325.942 282.261,326.609 281.5,327.5C 279.965,331.053 277.965,334.386 275.5,337.5C 274.325,337.281 273.325,337.614 272.5,338.5C 271.057,341.077 269.39,343.41 267.5,345.5C 268.726,341.38 270.726,337.713 273.5,334.5C 275.326,332.853 276.66,330.853 277.5,328.5C 282.066,322.552 286.399,316.219 290.5,309.5 Z"/></g>
<g><path style="opacity:1" fill="#a0316f" d="M 306.5,328.5 C 306.423,329.75 305.756,330.583 304.5,331C 305.5,331.333 306.5,331.667 307.5,332C 304.583,332.662 303.25,334.495 303.5,337.5C 297.342,341.578 290.676,344.578 283.5,346.5C 284.37,344.726 285.703,343.393 287.5,342.5C 290.786,340.549 293.786,338.215 296.5,335.5C 298.167,334.5 299.5,333.167 300.5,331.5C 302.483,330.529 304.483,329.529 306.5,328.5 Z"/></g>
<g><path style="opacity:1" fill="#552b87" d="M 234.5,335.5 C 235.043,335.56 235.376,335.893 235.5,336.5C 231.495,338.28 227.495,338.613 223.5,337.5C 223.5,338.833 223.5,340.167 223.5,341.5C 221.801,341.66 220.134,341.494 218.5,341C 218.833,340.667 219.167,340.333 219.5,340C 216.725,338.346 214.058,338.679 211.5,341C 214.376,341.438 217.043,342.438 219.5,344C 219.167,344.333 218.833,344.667 218.5,345C 219.5,345.333 220.5,345.667 221.5,346C 220.748,346.671 220.414,347.504 220.5,348.5C 212.654,346.571 205.32,343.571 198.5,339.5C 199.873,339.657 201.207,339.49 202.5,339C 201.833,338.667 201.167,338.333 200.5,338C 202.154,337.392 203.821,336.892 205.5,336.5C 207.947,337.225 210.447,337.892 213,338.5C 213.945,338.095 214.612,337.428 215,336.5C 216.965,337.885 218.798,337.718 220.5,336C 225.381,335.729 230.047,335.562 234.5,335.5 Z"/></g>
<g><path style="opacity:1" fill="#552987" d="M 223.5,341.5 C 225.527,341.662 227.527,341.495 229.5,341C 230.126,340.25 230.626,339.416 231,338.5C 232.333,342.5 233.667,342.5 235,338.5C 238.073,340.312 238.073,342.312 235,344.5C 234.667,343.833 234.333,343.167 234,342.5C 233.646,344.807 232.646,345.141 231,343.5C 229.238,343.944 229.405,344.444 231.5,345C 228.774,345.182 226.107,345.682 223.5,346.5C 226.821,347.33 230.154,347.997 233.5,348.5C 232.5,349.167 231.5,349.833 230.5,350.5C 227.012,350.46 223.679,349.793 220.5,348.5C 220.414,347.504 220.748,346.671 221.5,346C 220.5,345.667 219.5,345.333 218.5,345C 218.833,344.667 219.167,344.333 219.5,344C 217.043,342.438 214.376,341.438 211.5,341C 214.058,338.679 216.725,338.346 219.5,340C 219.167,340.333 218.833,340.667 218.5,341C 220.134,341.494 221.801,341.66 223.5,341.5 Z"/></g>
<g><path style="opacity:1" fill="#65318e" d="M 259.5,347.5 C 256.645,349.25 253.311,350.083 249.5,350C 253.688,350.176 257.688,350.676 261.5,351.5C 253.167,352.833 244.833,352.833 236.5,351.5C 240.312,350.676 244.312,350.176 248.5,350C 246.744,349.798 245.078,349.298 243.5,348.5C 245.033,345.559 246.366,342.559 247.5,339.5C 248.265,339.077 249.098,338.743 250,338.5C 251.194,340.024 252.694,341.19 254.5,342C 253.833,342.667 253.167,343.333 252.5,344C 254.067,346.741 256.401,347.908 259.5,347.5 Z"/></g>
<g><path style="opacity:1" fill="#d6338d" d="M 275.5,337.5 C 279.573,339.088 283.573,340.755 287.5,342.5C 285.703,343.393 284.37,344.726 283.5,346.5C 277.159,349.39 270.493,351.056 263.5,351.5C 263.87,348.733 265.204,346.733 267.5,345.5C 269.39,343.41 271.057,341.077 272.5,338.5C 273.325,337.614 274.325,337.281 275.5,337.5 Z"/></g>
</svg>
